<svg width="277" height="61" viewBox="0 0 277 61" fill="none" xmlns="http://www.w3.org/2000/svg">
<g clip-path="url(#clip0_28500_130)">
<path d="M208.71 23.57H182.07L177.09 34.24H193.43C193.19 35.55 192.79 36.57 192.32 37.42C191.95 38.08 191.43 38.8 190.98 39.4C188.24 42.98 183.94 45.29 179.09 45.29C170.81 45.29 163.92 38.58 163.92 30.3C163.92 22.02 170.4 15.45 178.57 15.33C178.65 15.33 179.01 15.32 179.09 15.32H196.2L203.35 0H179.09C162.38 0 148.78 13.6 148.78 30.31C148.78 47.02 162.38 60.62 179.09 60.62C194.84 60.62 208.11 48.28 209.29 32.54C209.34 31.89 209.4 31.12 209.4 30.31C209.4 28.37 209.2 25.6 208.71 23.58" fill="#231F20"/>
<path d="M246.1 0.0400391C229.38 0.0400391 215.79 13.64 215.79 30.35C215.79 47.06 229.39 60.66 246.1 60.66C262.81 60.66 276.41 47.06 276.41 30.35C276.41 13.64 262.81 0.0400391 246.1 0.0400391ZM246.1 45.3C237.82 45.3 231.11 38.59 231.11 30.31C231.11 22.03 237.82 15.32 246.1 15.32C254.38 15.32 261.09 22.03 261.09 30.31C261.09 38.59 254.38 45.3 246.1 45.3Z" fill="#231F20"/>
<path d="M112.08 0.0400391C95.3598 0.0400391 81.7598 13.64 81.7598 30.35C81.7598 47.06 95.3598 60.66 112.08 60.66C128.8 60.66 142.39 47.06 142.39 30.35C142.39 13.64 128.79 0.0400391 112.08 0.0400391ZM112.08 45.3C103.8 45.3 97.0898 38.59 97.0898 30.31C97.0898 22.03 103.8 15.32 112.08 15.32C120.36 15.32 127.07 22.03 127.07 30.31C127.07 38.59 120.36 45.3 112.08 45.3Z" fill="#231F20"/>
<path d="M41.78 60.66L54.1 34.24L65.81 59.35H83.37L55.72 0.0400391H55.42L41.69 29.49L27.95 0.0400391H27.66L0 59.35H17.56L29.27 34.24L41.59 60.66H41.78Z" fill="#231F20"/>
</g>
<defs>
<clipPath id="clip0_28500_130">
<rect width="276.41" height="60.66" fill="white"/>
</clipPath>
</defs>
</svg>
